0
SECTION
2
HEADER
9
$INSUNITS
70
4
9
$ACADVER
1
AC1014
9
$HANDSEED
5
FFFF
0
ENDSEC
0
SECTION
2
TABLES
0
TABLE
2
VPORT
5
8
100
AcDbSymbolTable
0
ENDTAB
0
TABLE
2
LTYPE
5
5
100
AcDbSymbolTable
0
LTYPE
5
14
100
AcDbSymbolTableRecord
100
AcDbLinetypeTableRecord
2
BYBLOCK
70
0
0
LTYPE
5
15
100
AcDbSymbolTableRecord
100
AcDbLinetypeTableRecord
2
BYLAYER
70
0
0
LTYPE
5
16
100
AcDbSymbolTableRecord
100
AcDbLinetypeTableRecord
2
DASHED
70
0
3
Dashed __ __ __ __ __ __ __ __ __ __ __ __ __ _
72
65
73
2
40
0.75
49
0.5
74
0
49
-0.25
74
0
0
ENDTAB
0
TABLE
2
LAYER
5
2
100
AcDbSymbolTable
70
2
0
LAYER
5
50
100
AcDbSymbolTableRecord
100
AcDbLayerTableRecord
2
0
70
0
62
7
6
CONTINUOUS
0
ENDTAB
0
TABLE
2
STYLE
5
3
100
AcDbSymbolTable
70
1
0
STYLE
5
11
100
AcDbSymbolTableRecord
100
AcDbTextStyleTableRecord
2
STANDARD
70
0
0
ENDTAB
0
TABLE
2
VIEW
5
6
100
AcDbSymbolTable
70
0
0
ENDTAB
0
TABLE
2
UCS
5
7
100
AcDbSymbolTable
70
0
0
ENDTAB
0
TABLE
2
APPID
5
9
100
AcDbSymbolTable
70
2
0
APPID
5
12
100
AcDbSymbolTableRecord
100
AcDbRegAppTableRecord
2
ACAD
70
0
0
ENDTAB
0
TABLE
2
DIMSTYLE
5
A
100
AcDbSymbolTable
70
1
0
ENDTAB
0
TABLE
2
BLOCK_RECORD
5
1
100
AcDbSymbolTable
70
1
0
BLOCK_RECORD
5
1F
100
AcDbSymbolTableRecord
100
AcDbBlockTableRecord
2
*MODEL_SPACE
0
BLOCK_RECORD
5
1B
100
AcDbSymbolTableRecord
100
AcDbBlockTableRecord
2
*PAPER_SPACE
0
ENDTAB
0
ENDSEC
0
SECTION
2
BLOCKS
0
BLOCK
5
20
100
AcDbEntity
100
AcDbBlockBegin
2
*MODEL_SPACE
0
ENDBLK
5
21
100
AcDbEntity
100
AcDbBlockEnd
0
BLOCK
5
1C
100
AcDbEntity
100
AcDbBlockBegin
2
*PAPER_SPACE
0
ENDBLK
5
1D
100
AcDbEntity
100
AcDbBlockEnd
0
ENDSEC
0
SECTION
2
ENTITIES
0
POINT
5
100
100
AcDbEntity
8
0
100
AcDbPoint
10
-5.000000074505806
20
-5.000000074505806
30
0
0
POINT
5
101
100
AcDbEntity
8
0
100
AcDbPoint
10
5.000000074505806
20
-5.000000074505806
30
0
0
POINT
5
102
100
AcDbEntity
8
0
100
AcDbPoint
10
5.000000074505806
20
5.000000074505806
30
0
0
POINT
5
103
100
AcDbEntity
8
0
100
AcDbPoint
10
5.000000074505806
20
-5.000000074505806
30
5
0
POINT
5
104
100
AcDbEntity
8
0
100
AcDbPoint
10
-5.000000074505806
20
-5.000000074505806
30
4.5997730193713231
0
POINT
5
105
100
AcDbEntity
8
0
100
AcDbPoint
10
-5.000000074505806
20
5.000000074505806
30
5
0
POINT
5
106
100
AcDbEntity
8
0
100
AcDbPoint
10
5.000000074505806
20
5.000000074505806
30
4.9999999999999991
0
POINT
5
107
100
AcDbEntity
8
0
100
AcDbPoint
10
5.000000074505806
20
0
30
0
0
POINT
5
108
100
AcDbEntity
8
0
100
AcDbPoint
10
5.000000074505806
20
0
30
10
0
POINT
5
109
100
AcDbEntity
8
0
100
AcDbPoint
10
0
20
-5.000000074505806
30
0
0
POINT
5
110
100
AcDbEntity
8
0
100
AcDbPoint
10
0
20
-5.000000074505806
30
10
0
POINT
5
111
100
AcDbEntity
8
0
100
AcDbPoint
10
-5.000000074505806
20
0
30
10
0
POINT
5
112
100
AcDbEntity
8
0
100
AcDbPoint
10
0
20
5.000000074505806
30
10
0
POINT
5
113
100
AcDbEntity
8
0
100
AcDbPoint
10
0
20
5.000000074505806
30
0
0
POINT
5
114
100
AcDbEntity
8
0
100
AcDbPoint
10
-5.000000074505806
20
0
30
0
0
POINT
5
115
100
AcDbEntity
8
0
100
AcDbPoint
10
-5.0000000000000018
20
-5.0000001490116111
30
0
0
POINT
5
116
100
AcDbEntity
8
0
100
AcDbPoint
10
-5.0000000000000018
20
-5.0000001490116111
30
0
0
POINT
5
117
100
AcDbEntity
8
0
100
AcDbPoint
10
-5.0000000000000018
20
-5.0000001490116111
30
5
0
POINT
5
118
100
AcDbEntity
8
0
100
AcDbPoint
10
5
20
5.0000000000000009
30
0
0
POINT
5
119
100
AcDbEntity
8
0
100
AcDbPoint
10
5
20
5.0000000000000009
30
0
0
POINT
5
120
100
AcDbEntity
8
0
100
AcDbPoint
10
5
20
5.0000000000000009
30
5
0
POINT
5
121
100
AcDbEntity
8
0
100
AcDbPoint
10
-5.000000074505806
20
4.999999925494194
30
0
0
POINT
5
122
100
AcDbEntity
8
0
100
AcDbPoint
10
-5.000000074505806
20
4.999999925494194
30
0
0
POINT
5
123
100
AcDbEntity
8
0
100
AcDbPoint
10
-5.000000074505806
20
4.999999925494194
30
5
0
LINE
5
124
100
AcDbEntity
8
0
100
AcDbLine
10
5.000000074505806
20
5.000000074505806
30
0
11
-5.000000074505806
21
5.000000074505806
31
0
0
LINE
5
125
100
AcDbEntity
8
0
100
AcDbLine
10
-5.000000074505806
20
5.000000074505806
30
0
11
-5.000000074505806
21
-5.000000074505806
31
0
0
LINE
5
126
100
AcDbEntity
8
0
100
AcDbLine
10
-5.000000074505806
20
-5.000000074505806
30
0
11
5.000000074505806
21
-5.000000074505806
31
0
0
LINE
5
127
100
AcDbEntity
8
0
100
AcDbLine
10
5.000000074505806
20
-5.000000074505806
30
0
11
5.000000074505806
21
5.000000074505806
31
0
0
LINE
5
128
100
AcDbEntity
8
0
100
AcDbLine
10
0
20
-5.000000074505806
30
10
11
1.8750300201166663
21
-5.000000074505806
31
6.8750299921765423
0
LINE
5
129
100
AcDbEntity
8
0
100
AcDbLine
10
5.000000074505806
20
-5.000000074505806
30
5
11
1.8750300201166663
21
-5.000000074505806
31
6.8750299921765423
0
LINE
5
130
100
AcDbEntity
8
0
100
AcDbLine
10
5.000000074505806
20
0
30
10
11
5.000000074505806
21
-1.8750300201166663
31
6.8750299921765423
0
LINE
5
131
100
AcDbEntity
8
0
100
AcDbLine
10
5.000000074505806
20
-5.000000074505806
30
5
11
5.000000074505806
21
-1.8750300201166663
31
6.8750299921765423
0
LINE
5
132
100
AcDbEntity
8
0
100
AcDbLine
10
5.000000074505806
20
0
30
10
11
2.500000074505806
21
0
31
10
0
LINE
5
133
100
AcDbEntity
8
0
100
AcDbLine
10
0
20
-5.000000074505806
30
10
11
0
21
-2.500000074505806
31
10
0
LINE
5
134
100
AcDbEntity
8
0
100
AcDbLine
10
0
20
-2.500000074505806
30
10
11
2.5
21
-2.500000074505806
31
10
0
LINE
5
135
100
AcDbEntity
8
0
100
AcDbLine
10
2.500000074505806
20
0
30
10
11
2.5
21
-2.500000074505806
31
10
0
LINE
5
136
100
AcDbEntity
8
0
100
AcDbLine
10
2.5
20
-2.500000074505806
30
10
11
3.1252307261173771
21
-3.1252307261173771
31
8.125230679547812
0
LINE
5
137
100
AcDbEntity
8
0
100
AcDbLine
10
0
20
-2.500000074505806
30
10
11
3.1252307261173771
21
-3.1252307261173771
31
8.125230679547812
0
LINE
5
138
100
AcDbEntity
8
0
100
AcDbLine
10
3.1252307261173771
20
-3.1252307261173771
30
8.125230679547812
11
0
21
-5.000000074505806
31
10
0
LINE
5
139
100
AcDbEntity
8
0
100
AcDbLine
10
3.1252307261173771
20
-3.1252307261173771
30
8.125230679547812
11
5.000000074505806
21
-5.000000074505806
31
5
0
LINE
5
140
100
AcDbEntity
8
0
100
AcDbLine
10
5.000000074505806
20
0
30
10
11
3.1252307261173771
21
-3.1252307261173771
31
8.125230679547812
0
LINE
5
141
100
AcDbEntity
8
0
100
AcDbLine
10
2.500000074505806
20
0
30
10
11
3.1252307261173771
21
-3.1252307261173771
31
8.125230679547812
0
LINE
5
142
100
AcDbEntity
8
0
100
AcDbLine
10
3.1252307261173771
20
-3.1252307261173771
30
8.125230679547812
11
1.8750300201166663
21
-5.000000074505806
31
6.8750299921765423
0
LINE
5
143
100
AcDbEntity
8
0
100
AcDbLine
10
3.1252307261173771
20
-3.1252307261173771
30
8.125230679547812
11
5.000000074505806
21
-1.8750300201166663
31
6.8750299921765423
0
LINE
5
144
100
AcDbEntity
8
0
100
AcDbLine
10
5.000000074505806
20
-5.000000074505806
30
5
11
5.000000074505806
21
-1.8750300201166663
31
6.8750299921765423
0
LINE
5
145
100
AcDbEntity
8
0
100
AcDbLine
10
3.1252307261173771
20
-3.1252307261173771
30
8.125230679547812
11
5.000000074505806
21
-1.8750300201166663
31
6.8750299921765423
0
LINE
5
146
100
AcDbEntity
8
0
100
AcDbLine
10
3.1252307261173771
20
-3.1252307261173771
30
8.125230679547812
11
5.000000074505806
21
-5.000000074505806
31
5
0
LINE
5
147
100
AcDbEntity
8
0
100
AcDbLine
10
3.1252307261173771
20
-3.1252307261173771
30
8.125230679547812
11
1.8750300201166663
21
-5.000000074505806
31
6.8750299921765423
0
LINE
5
148
100
AcDbEntity
8
0
100
AcDbLine
10
5.000000074505806
20
-5.000000074505806
30
5
11
1.8750300201166663
21
-5.000000074505806
31
6.8750299921765423
0
LINE
5
149
100
AcDbEntity
8
0
100
AcDbLine
10
0
20
-5.000000074505806
30
10
11
1.8750300201166663
21
-5.000000074505806
31
6.8750299921765423
0
LINE
5
150
100
AcDbEntity
8
0
100
AcDbLine
10
3.1252307261173771
20
-3.1252307261173771
30
8.125230679547812
11
0
21
-5.000000074505806
31
10
0
LINE
5
151
100
AcDbEntity
8
0
100
AcDbLine
10
0
20
-2.500000074505806
30
10
11
3.1252307261173771
21
-3.1252307261173771
31
8.125230679547812
0
LINE
5
152
100
AcDbEntity
8
0
100
AcDbLine
10
0
20
-5.000000074505806
30
10
11
0
21
-2.500000074505806
31
10
0
LINE
5
153
100
AcDbEntity
8
0
100
AcDbLine
10
0
20
-2.500000074505806
30
10
11
2.5
21
-2.500000074505806
31
10
0
LINE
5
154
100
AcDbEntity
8
0
100
AcDbLine
10
2.500000074505806
20
0
30
10
11
2.5
21
-2.500000074505806
31
10
0
LINE
5
155
100
AcDbEntity
8
0
100
AcDbLine
10
2.500000074505806
20
0
30
10
11
3.1252307261173771
21
-3.1252307261173771
31
8.125230679547812
0
LINE
5
156
100
AcDbEntity
8
0
100
AcDbLine
10
2.5
20
-2.500000074505806
30
10
11
3.1252307261173771
21
-3.1252307261173771
31
8.125230679547812
0
LINE
5
157
100
AcDbEntity
8
0
100
AcDbLine
10
5.000000074505806
20
0
30
10
11
3.1252307261173771
21
-3.1252307261173771
31
8.125230679547812
0
LINE
5
158
100
AcDbEntity
8
0
100
AcDbLine
10
5.000000074505806
20
0
30
10
11
2.500000074505806
21
0
31
10
0
LINE
5
159
100
AcDbEntity
8
0
100
AcDbLine
10
5.000000074505806
20
0
30
10
11
5.000000074505806
21
-1.8750300201166663
31
6.8750299921765423
0
LINE
5
160
100
AcDbEntity
8
0
100
AcDbLine
10
-3.1252306516115724
20
-3.1252308006231821
30
8.125230679547812
11
-5.0000000000000018
21
-5.0000001490116111
31
5
0
LINE
5
161
100
AcDbEntity
8
0
100
AcDbLine
10
7.4505804859015257e-08
20
-2.5000001490116115
30
10
11
-2.5000000000000009
21
-2.5000000745058051
31
10
0
LINE
5
162
100
AcDbEntity
8
0
100
AcDbLine
10
-5.0000000000000018
20
-5.0000001490116111
30
5
11
-1.8750299456108621
21
-5.0000001490116119
31
6.8750299921765423
0
LINE
5
163
100
AcDbEntity
8
0
100
AcDbLine
10
-3.1252306516115724
20
-3.1252308006231821
30
8.125230679547812
11
-5.0000000000000009
21
-1.8750300946224707
31
6.8750299921765423
0
LINE
5
164
100
AcDbEntity
8
0
100
AcDbLine
10
7.4505804859015257e-08
20
-5.0000001490116119
30
10
11
-1.8750299456108621
21
-5.0000001490116119
31
6.8750299921765423
0
LINE
5
165
100
AcDbEntity
8
0
100
AcDbLine
10
7.4505804859015257e-08
20
-5.0000001490116119
30
10
11
-3.1252306516115724
21
-3.1252308006231821
31
8.125230679547812
0
LINE
5
166
100
AcDbEntity
8
0
100
AcDbLine
10
7.4505804859015257e-08
20
-5.0000001490116119
30
10
11
-1.8750299456108621
21
-5.0000001490116119
31
6.8750299921765423
0
LINE
5
167
100
AcDbEntity
8
0
100
AcDbLine
10
-3.1252306516115724
20
-3.1252308006231821
30
8.125230679547812
11
-1.8750299456108621
21
-5.0000001490116119
31
6.8750299921765423
0
LINE
5
168
100
AcDbEntity
8
0
100
AcDbLine
10
-5.0000000000000018
20
-5.0000001490116111
30
5
11
-5.0000000000000009
21
-1.8750300946224707
31
6.8750299921765423
0
LINE
5
169
100
AcDbEntity
8
0
100
AcDbLine
10
-5.0000000000000009
20
-7.4505803748792219e-08
30
10
11
-5.0000000000000009
21
-1.8750300946224707
31
6.8750299921765423
0
LINE
5
170
100
AcDbEntity
8
0
100
AcDbLine
10
-3.1252306516115724
20
-3.1252308006231821
30
8.125230679547812
11
-5.0000000000000009
21
-7.4505803748792219e-08
31
10
0
LINE
5
171
100
AcDbEntity
8
0
100
AcDbLine
10
-2.5000000000000009
20
-2.5000000745058051
30
10
11
-3.1252306516115724
21
-3.1252308006231821
31
8.125230679547812
0
LINE
5
172
100
AcDbEntity
8
0
100
AcDbLine
10
-5.0000000000000018
20
-5.0000001490116111
30
5
11
-1.8750299456108621
21
-5.0000001490116119
31
6.8750299921765423
0
LINE
5
173
100
AcDbEntity
8
0
100
AcDbLine
10
-3.1252306516115724
20
-3.1252308006231821
30
8.125230679547812
11
-5.0000000000000018
21
-5.0000001490116111
31
5
0
LINE
5
174
100
AcDbEntity
8
0
100
AcDbLine
10
-5.0000000000000018
20
-5.0000001490116111
30
5
11
-5.0000000000000009
21
-1.8750300946224707
31
6.8750299921765423
0
LINE
5
175
100
AcDbEntity
8
0
100
AcDbLine
10
-2.5000000000000004
20
-7.4505804303903731e-08
30
10
11
-2.5000000000000009
21
-2.5000000745058051
31
10
0
LINE
5
176
100
AcDbEntity
8
0
100
AcDbLine
10
-2.5000000000000004
20
-7.4505804303903731e-08
30
10
11
-3.1252306516115724
21
-3.1252308006231821
31
8.125230679547812
0
LINE
5
177
100
AcDbEntity
8
0
100
AcDbLine
10
7.4505804859015257e-08
20
-2.5000001490116115
30
10
11
-3.1252306516115724
21
-3.1252308006231821
31
8.125230679547812
0
LINE
5
178
100
AcDbEntity
8
0
100
AcDbLine
10
-3.1252306516115724
20
-3.1252308006231821
30
8.125230679547812
11
-1.8750299456108621
21
-5.0000001490116119
31
6.8750299921765423
0
LINE
5
179
100
AcDbEntity
8
0
100
AcDbLine
10
-2.5000000000000004
20
-7.4505804303903731e-08
30
10
11
-2.5000000000000009
21
-2.5000000745058051
31
10
0
LINE
5
180
100
AcDbEntity
8
0
100
AcDbLine
10
7.4505804859015257e-08
20
-5.0000001490116119
30
10
11
-3.1252306516115724
21
-3.1252308006231821
31
8.125230679547812
0
LINE
5
181
100
AcDbEntity
8
0
100
AcDbLine
10
-5.0000000000000009
20
-7.4505803748792219e-08
30
10
11
-5.0000000000000009
21
-1.8750300946224707
31
6.8750299921765423
0
LINE
5
182
100
AcDbEntity
8
0
100
AcDbLine
10
-3.1252306516115724
20
-3.1252308006231821
30
8.125230679547812
11
-5.0000000000000009
21
-7.4505803748792219e-08
31
10
0
LINE
5
183
100
AcDbEntity
8
0
100
AcDbLine
10
7.4505804859015257e-08
20
-2.5000001490116115
30
10
11
-2.5000000000000009
21
-2.5000000745058051
31
10
0
LINE
5
184
100
AcDbEntity
8
0
100
AcDbLine
10
-2.5000000000000009
20
-2.5000000745058051
30
10
11
-3.1252306516115724
21
-3.1252308006231821
31
8.125230679547812
0
LINE
5
185
100
AcDbEntity
8
0
100
AcDbLine
10
-3.1252306516115724
20
-3.1252308006231821
30
8.125230679547812
11
-5.0000000000000009
21
-1.8750300946224707
31
6.8750299921765423
0
LINE
5
186
100
AcDbEntity
8
0
100
AcDbLine
10
7.4505804859015257e-08
20
-2.5000001490116115
30
10
11
-3.1252306516115724
21
-3.1252308006231821
31
8.125230679547812
0
LINE
5
187
100
AcDbEntity
8
0
100
AcDbLine
10
-2.5000000000000004
20
-7.4505804303903731e-08
30
10
11
-3.1252306516115724
21
-3.1252308006231821
31
8.125230679547812
0
LINE
5
188
100
AcDbEntity
8
0
100
AcDbLine
10
3.1252306516115711
20
3.1252306516115711
30
8.125230679547812
11
5
21
5.0000000000000009
31
5
0
LINE
5
189
100
AcDbEntity
8
0
100
AcDbLine
10
-7.4505807079461306e-08
20
2.4999999999999996
30
10
11
2.5
21
2.499999925494194
31
10
0
LINE
5
190
100
AcDbEntity
8
0
100
AcDbLine
10
5
20
5.0000000000000009
30
5
11
1.8750299456108599
21
5
31
6.8750299921765423
0
LINE
5
191
100
AcDbEntity
8
0
100
AcDbLine
10
3.1252306516115711
20
3.1252306516115711
30
8.125230679547812
11
5.0000000000000009
21
1.875029945610861
31
6.8750299921765423
0
LINE
5
192
100
AcDbEntity
8
0
100
AcDbLine
10
-7.4505807079461306e-08
20
5
30
10
11
1.8750299456108599
21
5
31
6.8750299921765423
0
LINE
5
193
100
AcDbEntity
8
0
100
AcDbLine
10
-7.4505807079461306e-08
20
5
30
10
11
3.1252306516115711
21
3.1252306516115711
31
8.125230679547812
0
LINE
5
194
100
AcDbEntity
8
0
100
AcDbLine
10
-7.4505807079461306e-08
20
5
30
10
11
1.8750299456108599
21
5
31
6.8750299921765423
0
LINE
5
195
100
AcDbEntity
8
0
100
AcDbLine
10
3.1252306516115711
20
3.1252306516115711
30
8.125230679547812
11
1.8750299456108599
21
5
31
6.8750299921765423
0
LINE
5
196
100
AcDbEntity
8
0
100
AcDbLine
10
5
20
5.0000000000000009
30
5
11
5.0000000000000009
21
1.875029945610861
31
6.8750299921765423
0
LINE
5
197
100
AcDbEntity
8
0
100
AcDbLine
10
5.0000000000000009
20
-7.4505805969238268e-08
30
10
11
5.0000000000000009
21
1.875029945610861
31
6.8750299921765423
0
LINE
5
198
100
AcDbEntity
8
0
100
AcDbLine
10
3.1252306516115711
20
3.1252306516115711
30
8.125230679547812
11
5.0000000000000009
21
-7.4505805969238268e-08
31
10
0
LINE
5
199
100
AcDbEntity
8
0
100
AcDbLine
10
2.5
20
2.499999925494194
30
10
11
3.1252306516115711
21
3.1252306516115711
31
8.125230679547812
0
LINE
5
200
100
AcDbEntity
8
0
100
AcDbLine
10
5
20
5.0000000000000009
30
5
11
1.8750299456108599
21
5
31
6.8750299921765423
0
LINE
5
201
100
AcDbEntity
8
0
100
AcDbLine
10
3.1252306516115711
20
3.1252306516115711
30
8.125230679547812
11
5
21
5.0000000000000009
31
5
0
LINE
5
202
100
AcDbEntity
8
0
100
AcDbLine
10
5
20
5.0000000000000009
30
5
11
5.0000000000000009
21
1.875029945610861
31
6.8750299921765423
0
LINE
5
203
100
AcDbEntity
8
0
100
AcDbLine
10
2.5000000000000004
20
-7.450580652434978e-08
30
10
11
2.5
21
2.499999925494194
31
10
0
LINE
5
204
100
AcDbEntity
8
0
100
AcDbLine
10
2.5000000000000004
20
-7.450580652434978e-08
30
10
11
3.1252306516115711
21
3.1252306516115711
31
8.125230679547812
0
LINE
5
205
100
AcDbEntity
8
0
100
AcDbLine
10
-7.4505807079461306e-08
20
2.4999999999999996
30
10
11
3.1252306516115711
21
3.1252306516115711
31
8.125230679547812
0
LINE
5
206
100
AcDbEntity
8
0
100
AcDbLine
10
3.1252306516115711
20
3.1252306516115711
30
8.125230679547812
11
1.8750299456108599
21
5
31
6.8750299921765423
0
LINE
5
207
100
AcDbEntity
8
0
100
AcDbLine
10
2.5000000000000004
20
-7.450580652434978e-08
30
10
11
2.5
21
2.499999925494194
31
10
0
LINE
5
208
100
AcDbEntity
8
0
100
AcDbLine
10
-7.4505807079461306e-08
20
5
30
10
11
3.1252306516115711
21
3.1252306516115711
31
8.125230679547812
0
LINE
5
209
100
AcDbEntity
8
0
100
AcDbLine
10
5.0000000000000009
20
-7.4505805969238268e-08
30
10
11
5.0000000000000009
21
1.875029945610861
31
6.8750299921765423
0
LINE
5
210
100
AcDbEntity
8
0
100
AcDbLine
10
3.1252306516115711
20
3.1252306516115711
30
8.125230679547812
11
5.0000000000000009
21
-7.4505805969238268e-08
31
10
0
LINE
5
211
100
AcDbEntity
8
0
100
AcDbLine
10
-7.4505807079461306e-08
20
2.4999999999999996
30
10
11
2.5
21
2.499999925494194
31
10
0
LINE
5
212
100
AcDbEntity
8
0
100
AcDbLine
10
2.5
20
2.499999925494194
30
10
11
3.1252306516115711
21
3.1252306516115711
31
8.125230679547812
0
LINE
5
213
100
AcDbEntity
8
0
100
AcDbLine
10
3.1252306516115711
20
3.1252306516115711
30
8.125230679547812
11
5.0000000000000009
21
1.875029945610861
31
6.8750299921765423
0
LINE
5
214
100
AcDbEntity
8
0
100
AcDbLine
10
-7.4505807079461306e-08
20
2.4999999999999996
30
10
11
3.1252306516115711
21
3.1252306516115711
31
8.125230679547812
0
LINE
5
215
100
AcDbEntity
8
0
100
AcDbLine
10
2.5000000000000004
20
-7.450580652434978e-08
30
10
11
3.1252306516115711
21
3.1252306516115711
31
8.125230679547812
0
LINE
5
216
100
AcDbEntity
8
0
100
AcDbLine
10
-3.1252307261173771
20
3.1252305771057651
30
8.125230679547812
11
-5.000000074505806
21
4.999999925494194
31
5
0
LINE
5
217
100
AcDbEntity
8
0
100
AcDbLine
10
-2.5000000745058055
20
-1.4901161138336505e-07
30
10
11
-2.4999999999999996
21
2.4999999254941945
31
10
0
LINE
5
218
100
AcDbEntity
8
0
100
AcDbLine
10
-5.000000074505806
20
4.999999925494194
30
5
11
-5.000000074505806
21
1.8750298711050544
31
6.8750299921765423
0
LINE
5
219
100
AcDbEntity
8
0
100
AcDbLine
10
-3.1252307261173771
20
3.1252305771057651
30
8.125230679547812
11
-1.8750300201166663
21
4.9999999254941949
31
6.8750299921765423
0
LINE
5
220
100
AcDbEntity
8
0
100
AcDbLine
10
-5.0000000745058051
20
-1.4901161193847656e-07
30
10
11
-5.000000074505806
21
1.8750298711050544
31
6.8750299921765423
0
LINE
5
221
100
AcDbEntity
8
0
100
AcDbLine
10
-5.0000000745058051
20
-1.4901161193847656e-07
30
10
11
-3.1252307261173771
21
3.1252305771057651
31
8.125230679547812
0
LINE
5
222
100
AcDbEntity
8
0
100
AcDbLine
10
-5.0000000745058051
20
-1.4901161193847656e-07
30
10
11
-5.000000074505806
21
1.8750298711050544
31
6.8750299921765423
0
LINE
5
223
100
AcDbEntity
8
0
100
AcDbLine
10
-3.1252307261173771
20
3.1252305771057651
30
8.125230679547812
11
-5.000000074505806
21
1.8750298711050544
31
6.8750299921765423
0
LINE
5
224
100
AcDbEntity
8
0
100
AcDbLine
10
-5.000000074505806
20
4.999999925494194
30
5
11
-1.8750300201166663
21
4.9999999254941949
31
6.8750299921765423
0
LINE
5
225
100
AcDbEntity
8
0
100
AcDbLine
10
0
20
4.9999999254941949
30
10
11
-1.8750300201166663
21
4.9999999254941949
31
6.8750299921765423
0
LINE
5
226
100
AcDbEntity
8
0
100
AcDbLine
10
-3.1252307261173771
20
3.1252305771057651
30
8.125230679547812
11
0
21
4.9999999254941949
31
10
0
LINE
5
227
100
AcDbEntity
8
0
100
AcDbLine
10
-2.4999999999999996
20
2.4999999254941945
30
10
11
-3.1252307261173771
21
3.1252305771057651
31
8.125230679547812
0
LINE
5
228
100
AcDbEntity
8
0
100
AcDbLine
10
-5.000000074505806
20
4.999999925494194
30
5
11
-5.000000074505806
21
1.8750298711050544
31
6.8750299921765423
0
LINE
5
229
100
AcDbEntity
8
0
100
AcDbLine
10
-3.1252307261173771
20
3.1252305771057651
30
8.125230679547812
11
-5.000000074505806
21
4.999999925494194
31
5
0
LINE
5
230
100
AcDbEntity
8
0
100
AcDbLine
10
-5.000000074505806
20
4.999999925494194
30
5
11
-1.8750300201166663
21
4.9999999254941949
31
6.8750299921765423
0
LINE
5
231
100
AcDbEntity
8
0
100
AcDbLine
10
0
20
2.4999999254941945
30
10
11
-2.4999999999999996
21
2.4999999254941945
31
10
0
LINE
5
232
100
AcDbEntity
8
0
100
AcDbLine
10
0
20
2.4999999254941945
30
10
11
-3.1252307261173771
21
3.1252305771057651
31
8.125230679547812
0
LINE
5
233
100
AcDbEntity
8
0
100
AcDbLine
10
-2.5000000745058055
20
-1.4901161138336505e-07
30
10
11
-3.1252307261173771
21
3.1252305771057651
31
8.125230679547812
0
LINE
5
234
100
AcDbEntity
8
0
100
AcDbLine
10
-3.1252307261173771
20
3.1252305771057651
30
8.125230679547812
11
-5.000000074505806
21
1.8750298711050544
31
6.8750299921765423
0
LINE
5
235
100
AcDbEntity
8
0
100
AcDbLine
10
0
20
2.4999999254941945
30
10
11
-2.4999999999999996
21
2.4999999254941945
31
10
0
LINE
5
236
100
AcDbEntity
8
0
100
AcDbLine
10
-5.0000000745058051
20
-1.4901161193847656e-07
30
10
11
-3.1252307261173771
21
3.1252305771057651
31
8.125230679547812
0
LINE
5
237
100
AcDbEntity
8
0
100
AcDbLine
10
0
20
4.9999999254941949
30
10
11
-1.8750300201166663
21
4.9999999254941949
31
6.8750299921765423
0
LINE
5
238
100
AcDbEntity
8
0
100
AcDbLine
10
-3.1252307261173771
20
3.1252305771057651
30
8.125230679547812
11
0
21
4.9999999254941949
31
10
0
LINE
5
239
100
AcDbEntity
8
0
100
AcDbLine
10
-2.5000000745058055
20
-1.4901161138336505e-07
30
10
11
-2.4999999999999996
21
2.4999999254941945
31
10
0
LINE
5
240
100
AcDbEntity
8
0
100
AcDbLine
10
-2.4999999999999996
20
2.4999999254941945
30
10
11
-3.1252307261173771
21
3.1252305771057651
31
8.125230679547812
0
LINE
5
241
100
AcDbEntity
8
0
100
AcDbLine
10
-3.1252307261173771
20
3.1252305771057651
30
8.125230679547812
11
-1.8750300201166663
21
4.9999999254941949
31
6.8750299921765423
0
LINE
5
242
100
AcDbEntity
8
0
100
AcDbLine
10
-2.5000000745058055
20
-1.4901161138336505e-07
30
10
11
-3.1252307261173771
21
3.1252305771057651
31
8.125230679547812
0
LINE
5
243
100
AcDbEntity
8
0
100
AcDbLine
10
0
20
2.4999999254941945
30
10
11
-3.1252307261173771
21
3.1252305771057651
31
8.125230679547812
0
LINE
5
244
100
AcDbEntity
8
0
100
AcDbLine
10
0
20
4.9999999254941949
30
10
11
0
21
2.4999999254941945
31
10
0
LINE
5
245
100
AcDbEntity
8
0
100
AcDbLine
10
-5.000000074505806
20
0
30
10
11
-2.5000000000000004
21
-7.4505804303903731e-08
31
10
0
LINE
5
246
100
AcDbEntity
8
0
100
AcDbLine
10
-5.0000000000000018
20
-5.0000001490116111
30
5
11
-5.000000074505806
21
-5.000000074505806
31
0
0
LINE
5
247
100
AcDbEntity
8
0
100
AcDbLine
10
5.000000074505806
20
-5.000000074505806
30
5
11
5.000000074505806
21
-5.000000074505806
31
0
0
LINE
5
248
100
AcDbEntity
8
0
100
AcDbLine
10
-5.000000074505806
20
4.999999925494194
30
5
11
-5.000000074505806
21
4.999999925494194
31
0
0
LINE
5
249
100
AcDbEntity
8
0
100
AcDbLine
10
5.000000074505806
20
5.000000074505806
30
0
11
5
21
5.0000000000000009
31
5
0
ENDSEC
0
SECTION
2
OBJECTS
0
DICTIONARY
5
C
100
AcDbDictionary
3
ACAD_GROUP
350
D
3
ACAD_MLINESTYLE
350
17
0
DICTIONARY
5
D
100
AcDbDictionary
0
DICTIONARY
5
1A
330
C
100
AcDbDictionary
0
DICTIONARY
5
17
100
AcDbDictionary
0
ENDSEC
0
EOF
